<?xml version="1.0" standalone="no"?>
<!DOCTYPE svg PUBLIC "-//W3C//DTD SVG 20010904//EN"
 "http://www.w3.org/TR/2001/REC-SVG-20010904/DTD/svg10.dtd">
<svg version="1.0" xmlns="http://www.w3.org/2000/svg"
 width="1000.000000pt" height="1000.000000pt" viewBox="0 0 1000.000000 1000.000000"
 preserveAspectRatio="xMidYMid meet">

<g transform="translate(0.000000,1000.000000) scale(0.100000,-0.100000)"
fill="#000000" stroke="none">
<path d="M0 5000 l0 -5000 5000 0 5000 0 0 5000 0 5000 -5000 0 -5000 0 0
-5000z m5444 4745 c897 -87 1707 -401 2431 -945 165 -124 283 -227 464 -404
486 -478 849 -1023 1094 -1646 574 -1455 400 -3101 -464 -4398 -289 -433 -670
-839 -1080 -1152 -567 -433 -1241 -740 -1931 -880 -338 -68 -589 -93 -948 -94
-290 0 -428 9 -690 45 -904 126 -1775 525 -2462 1128 -145 128 -412 399 -520
528 -561 674 -925 1474 -1057 2328 -41 263 -54 440 -54 735 0 288 7 402 44
675 122 900 524 1779 1128 2467 129 147 399 412 531 523 607 506 1332 856
2100 1014 230 47 390 67 765 95 100 8 494 -4 649 -19z"/>
<path d="M4635 9690 c-972 -85 -1827 -426 -2582 -1028 -211 -168 -547 -504
-715 -714 -572 -718 -903 -1514 -1014 -2443 -26 -214 -26 -795 -1 -1010 111
-927 442 -1724 1015 -2443 148 -185 491 -533 662 -672 714 -579 1490 -919
2386 -1044 l42 -6 75 153 c152 304 326 588 503 817 111 143 320 354 439 443
92 69 324 192 382 203 45 9 47 3 108 -316 34 -177 65 -265 250 -715 85 -208
155 -383 154 -389 0 -6 -5 0 -10 13 -5 13 -18 36 -29 51 -11 15 -45 88 -75
161 -31 74 -63 150 -72 169 -35 80 -56 127 -73 165 -29 62 -100 247 -105 269
-2 12 -4 22 -6 24 -2 3 -2 4 -19 77 -7 33 -14 69 -15 80 -9 68 -50 247 -66
284 -10 24 -19 52 -19 62 0 25 -7 24 -98 -11 -93 -36 -264 -145 -347 -222 -33
-30 -75 -69 -94 -86 -19 -17 -32 -35 -28 -38 4 -4 7 -3 7 3 0 5 6 10 13 10 9
0 -3 -25 -29 -63 -23 -34 -40 -65 -37 -68 4 -3 1 -6 -5 -6 -7 0 -12 -7 -12
-15 0 -8 -4 -15 -10 -15 -5 0 -10 -6 -10 -13 0 -8 -9 -24 -20 -37 -11 -13 -20
-29 -20 -35 0 -7 -7 -15 -15 -19 -8 -3 -15 -12 -15 -21 0 -8 -8 -15 -17 -15
-9 0 -14 -3 -10 -6 3 -4 -7 -26 -23 -50 -17 -23 -30 -45 -30 -48 0 -3 -14 -19
-31 -35 -17 -16 -30 -32 -30 -35 3 -14 -12 -55 -18 -53 -3 1 -7 -2 -9 -8 -2
-5 -10 -14 -18 -18 -8 -5 -12 -12 -9 -18 4 -5 2 -9 -4 -9 -5 0 -20 -17 -32
-37 -13 -21 -26 -40 -30 -43 -4 -3 -14 -22 -22 -42 -9 -21 -21 -38 -27 -38 -6
0 -15 -10 -20 -22 -11 -25 -32 -60 -41 -68 -17 -16 -48 -78 -41 -85 4 -5 2 -5
-4 -2 -6 3 -21 -12 -35 -33 -13 -22 -27 -40 -31 -40 -5 0 -8 -6 -8 -14 0 -8
-7 -16 -15 -20 -8 -3 -15 -10 -15 -16 0 -5 -8 -18 -17 -28 -10 -10 -25 -29
-33 -42 -8 -13 -23 -31 -32 -41 -9 -9 -14 -20 -10 -23 3 -3 0 -6 -7 -6 -7 0
-10 -4 -7 -9 4 -5 0 -11 -6 -14 -64 -22 760 -30 957 -9 601 65 1096 207 1615
463 496 244 857 504 1256 903 285 286 502 561 699 886 546 902 773 1973 639
3025 -112 887 -472 1713 -1053 2415 -123 149 -394 424 -545 553 -506 434
-1094 756 -1715 941 -268 80 -537 135 -841 172 -157 19 -716 28 -875 14z
m-1519 -1339 c43 -21 152 -131 201 -202 69 -100 94 -167 133 -348 11 -52 26
-115 33 -140 7 -25 10 -62 7 -81 l-6 -35 -8 39 c-4 21 -12 50 -18 65 -6 14
-11 29 -10 34 1 4 -2 7 -8 7 -13 0 -13 -6 4 -39 10 -18 15 -57 14 -114 0 -48
-2 -87 -4 -87 -2 0 -8 17 -13 38 -6 21 -17 46 -25 57 -8 11 5 -42 30 -118 24
-77 44 -141 44 -144 0 -3 -56 104 -123 239 -170 335 -231 436 -337 550 -57 63
-95 88 -130 88 -43 0 -8 80 67 151 68 66 86 70 149 40z m4626 -220 c39 -46 58
-108 58 -193 0 -76 -6 -73 -15 7 -4 45 -11 64 -28 77 -12 10 -18 18 -13 18 5
0 1 9 -9 20 -10 11 -14 20 -10 20 5 0 -1 10 -13 23 -20 21 -28 23 -75 16 -147
-20 -562 -223 -897 -437 -100 -64 -62 -50 61 23 60 36 116 65 124 65 8 0 15 4
15 9 0 5 11 11 25 13 13 3 22 1 19 -3 -3 -5 -11 -9 -18 -9 -16 0 -48 -34 -41
-43 3 -4 2 -5 -1 -2 -11 7 -45 -15 -39 -25 4 -6 -2 -7 -12 -3 -10 3 -15 3 -12
-1 11 -12 -39 -59 -56 -52 -9 3 -13 2 -10 -4 3 -6 2 -10 -3 -10 -6 0 -12 -6
-15 -14 -4 -9 3 -12 26 -11 18 2 33 4 35 5 1 1 5 3 10 4 4 1 18 6 31 10 16 6
26 4 32 -5 7 -11 9 -9 9 6 0 26 50 32 51 6 0 -10 2 -11 6 -3 2 6 10 9 16 5 8
-5 8 -2 0 9 -13 15 -8 28 9 28 5 0 6 -4 3 -10 -3 -5 -1 -10 4 -10 6 0 11 5 11
10 0 6 9 10 20 10 11 0 20 5 20 12 0 6 3 8 6 5 4 -4 22 7 41 23 36 32 99 68
89 51 -13 -20 5 -11 67 33 76 54 306 181 313 173 3 -3 -5 -11 -18 -18 -34 -20
-47 -27 -172 -103 -63 -38 -152 -97 -197 -132 -46 -35 -136 -101 -199 -146
-63 -44 -133 -98 -155 -118 -22 -20 -68 -58 -101 -83 -34 -26 -104 -85 -155
-133 -52 -48 -117 -105 -145 -128 -279 -224 -697 -634 -894 -878 -97 -118
-224 -325 -261 -423 -22 -60 -36 -75 -51 -54 -23 34 8 576 41 712 11 44 113
158 332 372 165 160 445 404 559 486 25 18 70 53 101 78 61 50 323 233 404
283 28 17 66 41 85 53 38 24 144 86 230 135 30 17 129 68 220 113 241 120 386
175 467 176 36 1 46 -4 75 -38z m-4865 -83 c-4 -26 -10 -54 -14 -61 -4 -6 -8
-19 -10 -27 -6 -44 -27 -154 -40 -215 -19 -88 -32 -181 -39 -265 -2 -36 -11
-92 -19 -126 -8 -33 -17 -96 -20 -140 -3 -43 -7 -90 -10 -104 -9 -48 -17 -105
-19 -137 0 -18 -4 -33 -7 -33 -4 0 -7 -17 -8 -37 -1 -21 -3 -67 -5 -103 -3
-36 -5 -80 -5 -97 -1 -18 -5 -33 -10 -33 -6 0 -8 19 -5 43 2 23 9 119 14 212
6 94 15 204 20 245 5 41 12 104 15 140 4 36 20 143 36 239 16 95 29 184 29
198 0 13 4 21 10 18 6 -4 10 11 10 37 0 24 9 84 19 133 29 140 32 149 43 133
7 -9 8 -4 3 15 -4 21 -2 27 6 21 7 -4 9 -23 6 -56z m4848 -8 c3 -5 1 -10 -4
-10 -6 0 -11 5 -11 10 0 6 2 10 4 10 3 0 8 -4 11 -10z m-105 -44 c0 -2 -7 -7
-16 -10 -8 -3 -12 -2 -9 4 6 10 25 14 25 6z m-3991 -221 c14 -22 62 -91 106
-153 44 -62 103 -148 130 -192 28 -44 85 -129 127 -190 42 -60 84 -123 93
-139 8 -17 47 -74 86 -128 40 -54 79 -114 88 -134 9 -20 30 -53 46 -73 17 -21
31 -49 32 -63 l2 -26 -25 24 c-33 30 -322 452 -484 704 -24 39 -85 127 -135
197 -49 70 -118 167 -152 215 -34 48 -74 101 -88 117 -14 16 -25 36 -25 45 1
19 159 -144 199 -204z m3491 94 c0 -5 -4 -7 -10 -4 -5 3 -10 2 -10 -3 0 -13
-90 -66 -97 -58 -3 3 6 10 21 15 14 6 26 16 26 22 0 7 3 10 6 6 3 -3 15 3 27
14 23 21 37 24 37 8z m-2497 -1188 c23 -5 96 -15 161 -21 178 -17 309 -67 312
-119 2 -27 -1 -27 -61 6 -84 44 -161 62 -297 70 -71 3 -128 9 -128 13 0 3 5
11 12 18 8 8 9 12 1 12 -6 0 -13 -4 -15 -8 -1 -5 -28 -20 -58 -34 -119 -54
-369 -246 -524 -403 -70 -71 -174 -197 -201 -244 -5 -9 -26 -41 -46 -71 -39
-59 -79 -134 -79 -147 0 -4 38 48 83 117 45 69 95 143 111 163 53 69 37 31
-29 -69 -36 -54 -65 -103 -65 -109 1 -5 7 1 14 14 l13 24 19 -21 c13 -16 20
-18 27 -9 6 8 7 4 4 -10 -5 -24 7 -32 17 -10 4 6 4 2 2 -11 -2 -12 -1 -20 2
-18 4 2 18 -8 32 -22 14 -13 20 -22 13 -18 -6 3 -13 1 -15 -6 -3 -7 5 -18 16
-23 13 -7 20 -19 18 -30 -3 -17 -2 -17 14 -5 15 14 16 13 9 -10 -4 -14 -4 -22
0 -18 11 10 37 -41 28 -56 -4 -7 -1 -7 9 1 18 16 32 5 17 -13 -9 -11 -6 -16 9
-21 12 -5 22 -12 24 -18 2 -5 6 -9 11 -7 4 1 5 -9 3 -23 -3 -14 0 -25 5 -25 5
0 9 6 9 13 0 7 3 8 8 2 4 -6 20 -18 35 -28 15 -10 25 -22 22 -27 -4 -6 6 -10
21 -10 21 0 25 -4 21 -20 -9 -35 18 -9 68 65 49 73 88 119 67 80 -45 -82 -121
-182 -152 -197 -33 -16 -33 -17 -10 -18 17 0 38 13 61 38 37 38 129 166 129
177 0 6 49 81 122 188 11 16 34 49 51 75 17 26 47 67 67 92 20 25 61 77 92
115 56 69 211 226 318 321 30 27 78 73 107 103 49 50 55 53 90 48 52 -9 61
-29 20 -46 -65 -27 -385 -337 -512 -496 -146 -184 -307 -421 -365 -540 -8 -16
-35 -51 -60 -76 -37 -38 -58 -51 -116 -68 -94 -28 -210 -56 -314 -77 -47 -9
-96 -23 -110 -31 -54 -32 -180 -305 -164 -356 4 -14 3 -17 -7 -12 -9 6 -11 3
-6 -9 4 -10 7 -25 8 -34 0 -9 11 25 25 75 23 89 101 264 125 278 6 4 5 -5 -4
-21 -53 -107 -66 -138 -61 -143 3 -3 9 1 14 9 7 11 11 11 24 1 19 -16 22 -1 4
18 -11 10 -10 11 5 6 9 -4 17 -14 17 -22 0 -10 7 -14 20 -10 10 3 19 2 18 -2
-3 -26 5 -41 22 -41 10 0 24 -8 29 -17 6 -10 11 -13 11 -8 1 6 5 1 10 -10 l9
-20 1 20 c2 14 4 10 9 -10 4 -20 12 -29 22 -27 9 1 22 -5 29 -13 7 -8 9 -15 6
-15 -4 0 -4 -5 -1 -10 5 -8 11 -7 21 1 8 6 17 9 21 5 3 -3 1 -6 -5 -6 -7 0 -5
-8 5 -20 13 -15 20 -17 30 -8 8 6 13 7 12 2 -3 -20 2 -34 12 -34 6 0 8 8 5 18
-6 16 -5 16 7 0 8 -10 17 -15 20 -11 4 3 4 -4 2 -16 -2 -12 0 -19 5 -16 5 3
11 1 15 -5 4 -6 12 -8 18 -4 7 3 3 -2 -8 -11 -12 -11 -14 -16 -5 -13 18 6 62
-41 53 -56 -4 -6 1 -5 10 3 16 12 17 12 11 -5 -4 -10 -4 -16 1 -12 4 4 15 2
23 -4 16 -14 16 -14 77 -17 l40 -3 -59 -19 c-33 -11 -62 -22 -65 -25 -15 -16
155 33 257 74 71 30 66 18 -10 -18 -83 -40 -247 -92 -383 -121 -94 -20 -138
-24 -309 -24 l-199 0 7 -195 c6 -174 12 -243 32 -372 5 -33 4 -38 -14 -38 -11
0 -24 6 -30 13 -29 35 -76 397 -71 541 2 39 -1 77 -5 85 -5 7 -25 20 -45 28
-152 64 -291 311 -291 518 0 151 60 385 139 540 28 55 62 114 76 130 15 17 22
22 17 10 -11 -23 -4 -85 10 -85 5 0 6 -5 2 -12 -5 -8 -2 -9 9 -5 9 3 19 2 22
-4 4 -5 3 -9 -2 -8 -20 3 -29 -2 -30 -20 -1 -15 3 -18 15 -14 15 6 15 5 3 -10
-9 -12 -10 -21 -4 -29 6 -7 9 -21 8 -30 -2 -10 1 -18 6 -18 5 0 9 -9 9 -20 0
-11 5 -20 11 -20 5 0 7 -5 4 -10 -4 -6 -1 -17 5 -25 6 -8 9 -18 6 -24 -9 -14
20 -21 33 -8 9 9 11 8 6 -5 -4 -10 -12 -18 -19 -18 -6 0 0 -9 14 -20 14 -11
18 -18 9 -15 -10 4 -19 0 -22 -9 -4 -11 -1 -13 10 -9 12 5 14 3 8 -7 -6 -10
-4 -12 9 -7 14 5 15 3 6 -13 -12 -23 -13 -33 -1 -25 5 3 12 1 16 -5 4 -6 12
-7 18 -4 8 5 8 3 0 -7 -19 -19 -16 -40 4 -32 11 4 14 3 9 -5 -4 -7 -2 -12 6
-12 9 0 9 -3 -2 -10 -11 -7 -11 -10 -2 -10 7 0 10 -4 7 -10 -3 -5 1 -10 9 -10
9 0 16 -5 16 -11 0 -5 -5 -7 -12 -3 -6 4 -8 3 -4 -4 3 -5 0 -13 -6 -16 -7 -3
-3 -3 9 0 19 4 21 1 18 -25 -4 -28 -2 -29 14 -19 11 6 24 29 30 49 6 21 16 41
21 44 14 9 -18 -75 -44 -115 -26 -40 -48 -103 -71 -204 -19 -85 -12 -99 10
-20 9 33 23 80 30 105 13 47 41 103 100 204 20 33 38 65 41 72 6 12 -3 25 -87
118 -93 106 -104 200 -37 330 48 91 136 230 236 370 92 129 311 351 422 428
25 17 82 60 128 95 90 69 183 122 214 122 10 0 38 -4 61 -9z m-1956 -98 c-3
-10 -5 -2 -5 17 0 19 2 27 5 18 2 -10 2 -26 0 -35z m2461 -68 c-3 -3 -9 2 -12
12 -6 14 -5 15 5 6 7 -7 10 -15 7 -18z m-1158 -409 c0 -2 -8 -10 -17 -17 -16
-13 -17 -12 -4 4 13 16 21 21 21 13z m-350 -286 c-6 -11 -13 -20 -16 -20 -2 0
0 9 6 20 6 11 13 20 16 20 2 0 0 -9 -6 -20z m-31 -52 c-6 -13 -17 -30 -24 -38
-7 -8 -24 -45 -39 -82 -45 -114 -32 -211 40 -298 28 -33 28 -34 4 -19 -14 9
-37 40 -52 69 -49 92 -32 224 43 342 32 50 48 65 28 26z m638 -310 c-3 -7 -5
-2 -5 12 0 14 2 19 5 13 2 -7 2 -19 0 -25z m-616 -165 c13 -16 12 -17 -3 -4
-10 7 -18 15 -18 17 0 8 8 3 21 -13z m-909 -150 c-13 -140 -188 -450 -369
-655 -80 -90 -116 -145 -90 -135 17 6 21 -11 19 -95 0 -16 4 -28 10 -28 5 0 8
-7 5 -14 -4 -10 -1 -13 7 -10 10 4 12 -2 8 -22 -3 -15 -1 -25 4 -21 6 3 11 -3
11 -14 1 -10 25 -64 52 -120 28 -55 51 -107 51 -115 0 -8 7 -17 15 -20 8 -4
15 -14 15 -23 0 -9 9 -27 20 -41 11 -14 20 -31 20 -37 0 -7 5 -13 11 -13 5 0
7 -4 4 -10 -3 -5 -3 -10 2 -10 4 0 14 -13 21 -29 7 -16 26 -44 42 -63 16 -18
30 -39 30 -46 0 -7 5 -18 10 -25 6 -7 24 -28 40 -47 16 -19 30 -40 30 -47 0
-7 6 -16 13 -20 15 -10 57 -69 57 -81 0 -5 7 -15 15 -22 8 -7 12 -16 9 -22 -3
-5 0 -15 6 -23 7 -8 10 -15 7 -15 -7 0 -129 148 -186 225 -77 104 -152 225
-146 234 3 5 0 13 -6 17 -8 4 -9 3 -5 -4 4 -7 5 -12 3 -12 -15 0 -155 278
-210 416 -64 159 -61 179 42 294 82 92 156 187 200 260 78 128 144 246 156
279 22 62 68 161 75 161 4 0 5 -21 2 -47z m1195 -248 c0 -8 -4 -15 -9 -15 -10
0 -11 14 -1 23 9 10 10 9 10 -8z m90 -87 c-3 -8 -6 -5 -6 6 -1 11 2 17 5 13 3
-3 4 -12 1 -19z m-1135 -35 c20 -21 41 -49 48 -63 7 -14 25 -41 40 -60 27 -34
52 -77 104 -175 37 -70 124 -355 137 -445 6 -41 9 -98 7 -125 -3 -46 -5 -50
-27 -47 -36 4 -127 78 -186 152 -65 80 -153 253 -172 334 -19 83 -29 415 -14
444 16 29 21 28 63 -15z m2800 -88 c-2 -11 -26 -40 -52 -65 -26 -25 -101 -105
-166 -178 -235 -265 -551 -517 -859 -686 -154 -84 -199 -96 -254 -71 -71 32
-91 70 -102 193 -13 145 -16 154 -18 45 -1 -61 -5 -93 -12 -93 -7 0 -10 13 -7
34 2 19 0 32 -4 30 -4 -3 -9 5 -9 18 -1 15 -4 11 -8 -12 -7 -35 -7 -35 -13 -7
-3 18 2 41 14 65 11 20 28 64 39 98 21 67 58 125 128 197 188 197 637 396 981
436 143 17 158 18 255 17 84 -1 90 -2 87 -21z m-3312 -239 c0 -2 -8 -10 -17
-17 -16 -13 -17 -12 -4 4 13 16 21 21 21 13z m4588 -76 c5 0 22 -16 36 -35 15
-20 31 -33 35 -31 4 3 66 -50 136 -118 116 -111 127 -124 107 -130 -19 -6 -39
8 -120 82 -148 137 -262 262 -262 288 0 5 13 -6 29 -23 16 -18 33 -33 39 -33z
m-1795 -265 c-106 -94 -244 -201 -302 -233 -34 -18 -61 -31 -61 -29 0 3 29 23
63 45 59 37 208 153 302 235 22 19 42 33 44 31 2 -2 -19 -24 -46 -49z m-2184
-99 c-2 -2 -13 8 -23 22 l-19 27 24 -22 c12 -12 21 -24 18 -27z m166 -150 c18
-10 23 -16 13 -16 -22 0 -124 87 -158 135 -8 11 15 -8 51 -42 35 -34 78 -69
94 -77z m1645 -21 c0 -2 -10 -9 -22 -15 -22 -11 -22 -10 -4 4 21 17 26 19 26
11z m-553 -47 c-3 -8 -6 -5 -6 6 -1 11 2 17 5 13 3 -3 4 -12 1 -19z m23 -53
c0 -5 -5 -3 -10 5 -5 8 -10 20 -10 25 0 6 5 3 10 -5 5 -8 10 -19 10 -25z
m-701 -107 c-16 -7 -34 -30 -51 -67 -30 -64 -49 -127 -40 -135 3 -3 0 -6 -7
-6 -8 0 -9 -5 -2 -18 7 -13 6 -23 -1 -30 -9 -9 -9 -12 0 -12 7 0 12 -5 12 -11
0 -5 -5 -7 -11 -3 -7 4 -10 1 -7 -7 3 -8 -2 -29 -9 -48 -13 -31 -13 -33 4 -27
16 6 16 5 -1 -9 -17 -13 -17 -15 -3 -21 9 -3 14 -11 11 -16 -4 -6 -7 -28 -8
-48 -1 -28 2 -36 11 -29 8 7 11 5 9 -8 -3 -18 4 -38 41 -118 10 -22 18 -45 18
-52 0 -7 9 -19 20 -28 19 -15 19 -15 -10 -10 -18 4 -3 -7 40 -28 39 -19 79
-42 90 -52 21 -17 17 -17 -25 2 -268 124 -440 141 -608 63 -79 -37 -103 -58
-148 -127 -42 -65 -43 -79 -2 -33 23 26 27 28 15 8 -14 -22 -14 -32 -5 -60 6
-18 18 -39 25 -46 7 -7 13 -18 13 -24 0 -16 149 -158 165 -158 16 0 73 -29 93
-48 7 -6 17 -12 22 -12 5 0 37 -13 72 -29 35 -16 74 -32 88 -36 14 -4 28 -12
31 -17 3 -5 17 -10 30 -10 13 -1 30 -6 37 -11 6 -5 12 -6 12 -2 0 4 6 2 14 -4
9 -8 15 -8 18 -1 2 7 14 7 38 0 74 -22 388 -9 497 21 23 6 47 9 55 7 15 -5
-110 -35 -202 -48 -36 -5 -150 -8 -255 -6 l-190 2 -110 38 c-119 42 -195 77
-279 131 -67 43 -186 143 -186 156 0 6 5 7 11 3 8 -4 8 0 0 15 -14 25 -23 28
-14 4 4 -10 2 -14 -5 -9 -15 9 -42 106 -42 153 0 95 65 252 152 370 29 38 73
99 98 134 66 94 194 223 283 286 78 54 134 78 192 80 l30 1 -26 -10z m746
-1235 c-51 -28 -145 -62 -145 -53 0 5 26 18 58 29 31 12 66 26 77 31 34 15 42
10 10 -7z m-342 -1256 c-39 -60 -46 -72 -99 -167 -26 -47 -51 -86 -56 -88 -4
-2 -8 -8 -8 -13 0 -5 -18 -38 -40 -74 -22 -36 -40 -70 -40 -75 0 -5 -4 -12
-10 -15 -42 -26 181 373 253 453 31 34 31 27 0 -21z"/>
<path d="M3341 7685 c0 -5 6 -21 14 -35 8 -14 14 -20 14 -15 0 6 -6 21 -14 35
-8 14 -14 21 -14 15z"/>
<path d="M7041 7660 c-123 -91 -192 -148 -151 -124 34 19 237 165 270 193 71
62 11 27 -119 -69z"/>
<path d="M6492 7514 c-34 -25 -62 -48 -62 -51 0 -6 120 78 126 89 9 15 -2 8
-64 -38z"/>
<path d="M3550 7845 c13 -14 26 -25 28 -25 3 0 -5 11 -18 25 -13 14 -26 25
-28 25 -3 0 5 -11 18 -25z"/>
<path d="M4312 6726 c7 -8 15 -12 17 -11 5 6 -10 25 -20 25 -5 0 -4 -6 3 -14z"/>
<path d="M3305 5679 c-4 -6 -5 -12 -2 -15 2 -3 7 2 10 11 7 17 1 20 -8 4z"/>
<path d="M3661 4963 c-1 -6 -4 -20 -7 -30 -5 -17 -5 -17 6 0 6 10 9 23 6 30
-3 9 -5 9 -5 0z"/>
<path d="M3482 4760 c0 -14 2 -19 5 -12 2 6 2 18 0 25 -3 6 -5 1 -5 -13z"/>
<path d="M3554 4625 c0 -55 1 -76 3 -47 2 29 2 74 0 100 -2 26 -3 2 -3 -53z"/>
<path d="M7020 4275 c13 -14 26 -25 28 -25 3 0 -5 11 -18 25 -13 14 -26 25
-28 25 -3 0 5 -11 18 -25z"/>
<path d="M3465 3600 c-3 -6 1 -7 9 -4 18 7 21 14 7 14 -6 0 -13 -4 -16 -10z"/>
<path d="M2837 2713 c-4 -3 -7 -11 -7 -17 0 -6 5 -5 12 2 6 6 9 14 7 17 -3 3
-9 2 -12 -2z"/>
</g>
</svg>
